<svg xmlns="http://www.w3.org/2000/svg" width="155" height="201" viewBox="0 0 155 201" fill="none">
<path d="M18.637 16.3222L0.0309071 32.1466V83.3288L0 134.511L38.6339 167.489L77.2678 200.467L115.902 167.489L154.536 134.511L154.505 83.3288V32.1466L135.837 16.2912L117.169 0.466796L77.206 0.497703H37.2431L18.637 16.3222ZM132.375 20.1237L149.281 34.5264V83.3906V132.286L113.398 162.884C93.6486 179.728 77.3914 193.482 77.2678 193.482C77.1442 193.482 60.887 179.728 41.1374 162.884L5.25421 132.286V83.3906V34.5264L22.1913 20.1237L39.0975 5.72101H77.2678H115.438L132.375 20.1237Z" fill="white"/>
<path d="M29.1147 27.6032L15.4229 39.2551L40.4576 39.3479L65.5233 39.4097V44.5094V49.609H57.3329H49.1425L49.1734 80.7325V111.887L57.3638 118.81L65.5233 125.733V148.017V170.332L71.2411 175.185C74.3937 177.843 77.1135 180.037 77.268 180.037C77.4535 180.037 80.1424 177.843 83.2949 175.185L89.0127 170.301V148.017V125.733L97.2031 118.81L105.363 111.887L105.394 80.7325V49.609H97.2031H89.0127V44.5094V39.4097L114.078 39.3479L139.113 39.2551L125.421 27.6032L111.729 15.9203H77.268H42.8066L29.1147 27.6032ZM80.2042 70.7804L82.924 77.7345H83.8821C85.5202 77.7654 97.7285 78.6308 97.8522 78.7545C97.914 78.8163 95.3796 80.9798 92.258 83.576C87.4674 87.5321 86.5711 88.3975 86.6947 88.9538C86.7874 89.3247 87.5601 92.4772 88.3946 95.9697C89.2291 99.4622 89.9399 102.491 89.9399 102.677C89.9399 102.893 87.0965 101.255 83.604 99.0604L77.268 95.0734L70.9321 99.0604C67.4395 101.255 64.5961 102.893 64.5961 102.677C64.5961 102.491 65.307 99.4622 66.1414 95.9697C66.9759 92.4772 67.7486 89.3247 67.8413 88.9538C67.965 88.3975 67.0687 87.5321 62.2781 83.576C59.1564 80.9798 56.6221 78.8163 56.6839 78.7545C56.8075 78.6308 69.0158 77.7654 70.6539 77.7345H71.612L74.3318 70.7804C75.8463 66.9479 77.1444 63.8263 77.268 63.8263C77.3916 63.8263 78.6897 66.9479 80.2042 70.7804Z" fill="white"/>
<path d="M15.485 88.6139V127.65L34.3384 143.721C44.6922 152.561 53.6553 160.195 54.2425 160.658L55.3243 161.555L55.2934 145.977V130.431L47.103 123.508L38.9435 116.616V83.1124V49.6091H27.1988H15.4541L15.485 88.6139Z" fill="white"/>
<path d="M115.593 83.1124V116.616L107.433 123.508L99.2428 130.431V145.977L99.2119 161.555L101.375 159.731C102.55 158.742 111.513 151.108 121.28 142.794L139.051 127.65V88.6139L139.082 49.6091H127.337H115.593V83.1124Z" fill="white"/>
</svg>